<svg
        xmlns="http://www.w3.org/2000/svg"
        xmlns:xlink="http://www.w3.org/1999/xlink"
        width="97px" height="100px">
    <path fill-rule="evenodd" fill="rgb(60, 115, 154)"
          d="M96.017,57.735 C95.390,60.800 94.450,63.819 93.227,66.707 C92.028,69.538 90.542,72.269 88.812,74.824 C87.101,77.352 85.133,79.732 82.966,81.896 C80.797,84.059 78.413,86.022 75.879,87.730 C73.319,89.456 70.582,90.939 67.745,92.136 C65.521,93.074 63.219,93.841 60.879,94.432 L67.036,98.141 C67.510,98.427 67.663,99.042 67.376,99.515 C67.188,99.827 66.856,99.998 66.517,99.998 C66.340,99.998 66.161,99.952 66.000,99.855 L57.797,94.913 C57.567,94.774 57.403,94.550 57.340,94.291 C57.277,94.031 57.321,93.758 57.462,93.529 L62.545,85.310 C62.835,84.840 63.451,84.691 63.925,84.984 C64.396,85.274 64.542,85.891 64.251,86.361 L60.472,92.472 C62.684,91.909 64.860,91.180 66.963,90.293 C69.681,89.146 72.304,87.725 74.757,86.072 C77.185,84.435 79.469,82.554 81.548,80.481 C83.625,78.407 85.510,76.127 87.149,73.704 C88.808,71.256 90.231,68.638 91.380,65.926 C92.552,63.161 93.452,60.270 94.053,57.334 C94.672,54.318 94.985,51.213 94.985,48.105 C94.985,44.997 94.672,41.893 94.053,38.876 C93.941,38.335 94.292,37.806 94.834,37.696 C95.377,37.586 95.907,37.934 96.017,38.476 C96.664,41.623 96.991,44.862 96.991,48.105 C96.991,51.347 96.664,54.587 96.017,57.735 ZM88.278,23.338 C88.237,23.338 88.194,23.335 88.151,23.330 L78.505,22.121 C77.954,22.053 77.566,21.553 77.634,21.004 C77.704,20.456 78.207,20.071 78.754,20.135 L86.117,21.058 C84.732,19.174 83.204,17.384 81.548,15.730 C79.469,13.657 77.185,11.776 74.757,10.139 C72.304,8.485 69.681,7.065 66.963,5.918 C64.192,4.749 61.295,3.850 58.353,3.250 C52.308,2.015 45.901,2.015 39.857,3.250 C36.915,3.850 34.018,4.749 31.247,5.918 C28.529,7.065 25.906,8.485 23.453,10.139 C22.996,10.450 22.370,10.327 22.061,9.870 C21.751,9.412 21.871,8.790 22.331,8.481 C24.891,6.754 27.628,5.271 30.465,4.074 C33.359,2.854 36.383,1.916 39.455,1.290 C45.763,-0.000 52.448,-0.000 58.754,1.290 C61.827,1.916 64.851,2.854 67.745,4.074 C70.582,5.271 73.319,6.754 75.879,8.481 C78.413,10.188 80.797,12.152 82.966,14.315 C84.644,15.990 86.199,17.798 87.612,19.702 L88.536,12.685 C88.608,12.137 89.106,11.748 89.661,11.824 C90.210,11.895 90.597,12.398 90.524,12.945 L89.271,22.467 C89.205,22.972 88.774,23.338 88.278,23.338 ZM6.829,65.926 C7.979,68.638 9.402,71.256 11.059,73.704 C12.700,76.127 14.585,78.407 16.662,80.481 C18.740,82.554 21.025,84.435 23.453,86.071 C25.906,87.725 28.529,89.146 31.247,90.293 C34.018,91.461 36.915,92.360 39.857,92.960 C40.399,93.070 40.750,93.599 40.638,94.140 C40.541,94.615 40.123,94.941 39.657,94.941 C39.591,94.941 39.523,94.934 39.455,94.920 C36.383,94.294 33.359,93.357 30.465,92.136 C27.628,90.939 24.891,89.456 22.331,87.729 C19.797,86.022 17.412,84.059 15.244,81.896 C13.077,79.732 11.109,77.352 9.397,74.824 C7.668,72.269 6.182,69.538 4.982,66.707 C3.759,63.819 2.820,60.800 2.192,57.735 C1.546,54.587 1.219,51.348 1.219,48.105 C1.219,44.863 1.546,41.623 2.192,38.476 C2.820,35.410 3.759,32.392 4.982,29.504 C5.903,27.331 6.996,25.218 8.235,23.198 L1.346,24.912 C0.808,25.041 0.263,24.718 0.130,24.183 C-0.003,23.646 0.324,23.103 0.860,22.969 L10.209,20.643 C10.745,20.515 11.287,20.833 11.424,21.367 L13.805,30.679 C13.942,31.214 13.618,31.759 13.082,31.896 C12.998,31.917 12.915,31.927 12.833,31.927 C12.385,31.927 11.978,31.626 11.862,31.173 L10.048,24.081 C8.820,26.067 7.737,28.144 6.829,30.284 C5.658,33.050 4.758,35.940 4.157,38.876 C3.538,41.893 3.225,44.997 3.225,48.105 C3.225,51.213 3.538,54.318 4.157,57.334 C4.758,60.270 5.658,63.161 6.829,65.926 ZM22.332,63.811 L22.332,38.227 C22.332,37.869 22.523,37.539 22.833,37.360 C23.142,37.182 23.524,37.182 23.836,37.360 L46.168,50.222 C46.478,50.401 46.669,50.732 46.669,51.089 L46.669,76.674 C46.669,77.032 46.478,77.362 46.168,77.541 C46.013,77.630 45.840,77.675 45.666,77.675 C45.493,77.675 45.321,77.630 45.165,77.541 L22.833,64.679 C22.523,64.500 22.332,64.169 22.332,63.811 ZM24.337,63.234 L44.664,74.941 L44.664,51.667 L24.337,39.960 L24.337,63.234 ZM25.428,32.468 C25.428,32.110 25.620,31.778 25.932,31.600 L48.394,18.737 C48.703,18.558 49.085,18.560 49.395,18.738 L71.452,31.462 C71.762,31.641 71.953,31.972 71.953,32.328 C71.953,32.686 71.762,33.017 71.452,33.196 L49.118,46.059 C48.963,46.148 48.789,46.193 48.616,46.193 C48.444,46.193 48.271,46.149 48.117,46.060 L25.932,33.336 C25.620,33.157 25.428,32.826 25.428,32.468 ZM48.615,44.037 L68.945,32.328 L48.891,20.760 L28.445,32.469 L48.615,44.037 ZM51.626,49.945 L73.959,37.210 C74.268,37.032 74.650,37.035 74.960,37.213 C75.269,37.393 75.459,37.722 75.459,38.079 L75.459,63.673 C75.459,64.030 75.268,64.361 74.958,64.540 L52.625,77.402 C52.469,77.491 52.296,77.536 52.123,77.536 C51.950,77.536 51.777,77.491 51.622,77.402 C51.311,77.223 51.120,76.893 51.120,76.535 L51.120,50.814 C51.120,50.456 51.313,50.123 51.626,49.945 ZM53.126,74.802 L73.453,63.095 L73.453,39.804 L53.126,51.395 L53.126,74.802 Z"/>
</svg>