<svg
        xmlns="http://www.w3.org/2000/svg"
        xmlns:xlink="http://www.w3.org/1999/xlink"
        width="150px" height="99px">
    <path fill-rule="evenodd" fill="rgb(60, 115, 154)"
          d="M149.672,53.630 L122.099,85.311 C121.902,85.539 121.623,85.655 121.344,85.655 C121.112,85.655 120.877,85.574 120.689,85.411 C120.272,85.049 120.227,84.420 120.589,84.004 L147.593,52.976 L120.588,21.948 C120.226,21.532 120.271,20.902 120.688,20.541 C121.103,20.180 121.737,20.222 122.098,20.640 L149.672,52.322 C150.000,52.697 150.000,53.254 149.672,53.630 ZM116.443,42.856 L121.529,42.856 C122.081,42.856 122.529,43.303 122.529,43.854 C122.529,44.406 122.081,44.852 121.529,44.852 L116.441,44.852 L118.011,46.419 C118.402,46.808 118.402,47.440 118.011,47.830 C117.816,48.025 117.560,48.122 117.304,48.122 C117.048,48.122 116.792,48.025 116.597,47.830 L115.027,46.264 L115.027,51.339 C115.027,51.891 114.580,52.338 114.027,52.338 C113.474,52.338 113.027,51.891 113.027,51.339 L113.027,46.264 L111.457,47.830 C111.262,48.025 111.006,48.122 110.750,48.122 C110.494,48.122 110.238,48.025 110.043,47.830 C109.652,47.440 109.652,46.808 110.043,46.419 L111.613,44.852 L106.526,44.852 C105.973,44.852 105.526,44.406 105.526,43.854 C105.526,43.303 105.973,42.856 106.526,42.856 L111.612,42.856 L110.043,41.291 C109.652,40.901 109.652,40.270 110.043,39.880 C110.434,39.490 111.067,39.490 111.457,39.880 L113.027,41.446 L113.027,36.370 C113.027,35.818 113.474,35.371 114.027,35.371 C114.580,35.371 115.027,35.818 115.027,36.370 L115.027,41.446 L116.597,39.880 C116.988,39.490 117.621,39.490 118.011,39.880 C118.402,40.270 118.402,40.901 118.011,41.291 L116.443,42.856 ZM109.056,13.967 L99.805,13.967 L103.173,17.327 C103.563,17.717 103.563,18.349 103.173,18.738 C102.977,18.934 102.721,19.031 102.465,19.031 C102.210,19.031 101.954,18.934 101.758,18.738 L98.054,15.042 L98.054,24.945 C98.054,25.496 97.607,25.943 97.054,25.943 C96.501,25.943 96.054,25.496 96.054,24.945 L96.054,15.378 L92.687,18.737 C92.492,18.933 92.236,19.030 91.980,19.030 C91.724,19.030 91.468,18.933 91.273,18.737 C90.882,18.348 90.882,17.716 91.273,17.326 L94.640,13.967 L85.052,13.967 C84.499,13.967 84.052,13.520 84.052,12.969 C84.052,12.417 84.499,11.971 85.052,11.971 L94.977,11.971 L91.273,8.275 C90.882,7.885 90.882,7.253 91.273,6.864 C91.664,6.474 92.297,6.474 92.687,6.864 L96.054,10.224 L96.054,0.993 C96.054,0.441 96.501,-0.005 97.054,-0.005 C97.607,-0.005 98.054,0.441 98.054,0.993 L98.054,10.560 L101.758,6.864 C102.149,6.474 102.782,6.474 103.173,6.864 C103.563,7.253 103.563,7.885 103.173,8.275 L99.469,11.971 L109.056,11.971 C109.609,11.971 110.057,12.417 110.057,12.969 C110.057,13.520 109.609,13.967 109.056,13.967 ZM76.050,22.782 L71.173,22.782 L72.639,24.244 C73.029,24.634 73.029,25.266 72.639,25.655 C72.443,25.850 72.187,25.948 71.931,25.948 C71.676,25.948 71.420,25.850 71.224,25.655 L69.549,23.984 L69.549,29.269 C69.549,29.821 69.102,30.267 68.549,30.267 C67.996,30.267 67.549,29.821 67.549,29.269 L67.549,24.194 L66.085,25.655 C65.889,25.850 65.633,25.948 65.378,25.948 C65.122,25.948 64.866,25.850 64.670,25.655 C64.280,25.266 64.280,24.634 64.670,24.244 L66.136,22.782 L61.048,22.782 C60.495,22.782 60.047,22.336 60.047,21.784 C60.047,21.232 60.495,20.786 61.048,20.786 L66.345,20.786 L64.670,19.116 C64.280,18.726 64.280,18.094 64.670,17.704 C65.061,17.315 65.694,17.315 66.085,17.704 L67.549,19.165 L67.549,14.299 C67.549,13.748 67.996,13.301 68.549,13.301 C69.102,13.301 69.549,13.748 69.549,14.299 L69.549,19.376 L71.224,17.704 C71.615,17.315 72.248,17.315 72.639,17.704 C73.029,18.094 73.029,18.726 72.639,19.116 L70.964,20.786 L76.050,20.786 C76.603,20.786 77.051,21.232 77.051,21.784 C77.051,22.336 76.603,22.782 76.050,22.782 ZM87.939,25.296 L95.653,30.855 C95.868,31.010 96.012,31.244 96.054,31.505 C96.096,31.766 96.033,32.033 95.877,32.249 L47.856,98.585 C47.660,98.856 47.355,98.999 47.044,98.999 C46.841,98.999 46.637,98.937 46.459,98.810 L38.746,93.251 C38.531,93.095 38.386,92.861 38.344,92.601 C38.302,92.339 38.366,92.072 38.521,91.857 L86.543,25.520 C86.865,25.072 87.490,24.972 87.939,25.296 ZM40.728,92.216 L46.819,96.607 L84.650,44.349 L78.558,39.959 L40.728,92.216 ZM85.821,42.731 L93.670,31.889 L87.579,27.498 L79.730,38.341 L85.821,42.731 ZM2.407,52.976 L29.411,84.004 C29.773,84.420 29.728,85.049 29.311,85.411 C29.123,85.574 28.888,85.655 28.656,85.655 C28.376,85.655 28.098,85.539 27.901,85.311 L0.327,53.630 C0.000,53.254 0.000,52.697 0.327,52.322 L27.902,20.640 C28.263,20.222 28.897,20.180 29.312,20.541 C29.729,20.902 29.774,21.532 29.412,21.948 L2.407,52.976 ZM88.720,63.368 L94.017,63.368 L92.342,61.697 C91.952,61.308 91.952,60.676 92.342,60.286 C92.733,59.896 93.366,59.896 93.757,60.286 L95.221,61.747 L95.221,56.881 C95.221,56.330 95.668,55.883 96.221,55.883 C96.774,55.883 97.221,56.330 97.221,56.881 L97.221,61.957 L98.895,60.286 C99.286,59.896 99.919,59.896 100.310,60.286 C100.700,60.676 100.700,61.308 100.310,61.697 L98.635,63.368 L103.723,63.368 C104.275,63.368 104.723,63.814 104.723,64.366 C104.723,64.918 104.275,65.364 103.723,65.364 L98.846,65.364 L100.310,66.825 C100.700,67.215 100.700,67.846 100.310,68.236 C100.114,68.431 99.859,68.529 99.603,68.529 C99.347,68.529 99.091,68.431 98.895,68.236 L97.221,66.566 L97.221,71.851 C97.221,72.403 96.774,72.849 96.221,72.849 C95.668,72.849 95.221,72.403 95.221,71.851 L95.221,66.775 L93.757,68.236 C93.561,68.431 93.306,68.529 93.050,68.529 C92.794,68.529 92.538,68.431 92.342,68.236 C91.952,67.846 91.952,67.215 92.342,66.825 L93.807,65.364 L88.720,65.364 C88.167,65.364 87.720,64.918 87.720,64.366 C87.720,63.814 88.167,63.368 88.720,63.368 Z"/>
</svg>