<svg width="21" height="21" viewBox="0 0 21 21" fill="none" xmlns="http://www.w3.org/2000/svg">
<g clip-path="url(#clip0)">
<path fill-rule="evenodd" clip-rule="evenodd" d="M9.42387 0H11.5017C11.8725 0 12.0956 0.222306 12.1694 0.519267L12.5402 2.30017C13.3564 2.52248 14.0988 2.81944 14.7666 3.26487L16.3252 2.22636C16.6222 2.07788 16.9191 2.07788 17.1415 2.30019L18.6254 3.78413C18.8477 4.00644 18.9224 4.37803 18.6992 4.67499L17.7345 6.15894C18.1053 6.90133 18.4769 7.64288 18.6254 8.38536L20.4063 8.75613C20.7771 8.82996 21.0002 9.12691 21.0002 9.42387V11.5017C21.0002 11.8725 20.7779 12.0956 20.4063 12.1695L18.6254 12.5402C18.4769 13.3564 18.1061 14.0988 17.7345 14.7667L18.6992 16.3253C18.9215 16.6222 18.8477 16.9192 18.6254 17.1415L17.1415 18.6254C16.9191 18.8477 16.6222 18.9224 16.3252 18.6992L14.7666 17.7345C14.0989 18.1053 13.3565 18.4769 12.5402 18.6254L12.1694 20.4063C12.0956 20.7771 11.8725 21.0002 11.5017 21.0002H9.42387C9.12691 21.0002 8.82997 20.7779 8.75613 20.4063L8.38535 18.6254C7.64296 18.4769 6.90141 18.1061 6.15894 17.7345L4.67499 18.6992C4.37803 18.9215 4.00725 18.8477 3.78413 18.6254L2.30018 17.1415C2.07788 16.9192 2.07788 16.6222 2.22636 16.3253L3.26487 14.7667C2.81944 14.0989 2.52248 13.3565 2.30017 12.5402L0.519267 12.1695C0.222306 12.0956 0 11.8725 0 11.5017V9.42387C0 9.12691 0.222306 8.82997 0.519267 8.75613L2.30017 8.38536C2.52248 7.64297 2.81944 6.90141 3.26487 6.15894L2.22636 4.67499C2.07788 4.37803 2.07788 4.00726 2.30018 3.78413L3.78413 2.30019C4.00643 2.07788 4.37803 2.07788 4.67499 2.22636L6.15894 3.26487C6.90133 2.81944 7.64288 2.52248 8.38535 2.30017L8.75613 0.519267C8.82996 0.222306 9.12691 0 9.42387 0V0ZM10.4624 5.49108C13.2818 5.49108 15.508 7.7175 15.508 10.463C15.508 13.2825 13.2816 15.5087 10.4624 15.5087C7.71684 15.5087 5.49042 13.2823 5.49042 10.463C5.49042 7.7175 7.71684 5.49108 10.4624 5.49108Z" fill="#0C96ED"/>
</g>
<defs>
<clipPath id="clip0">
<rect width="21" height="21" fill="white"/>
</clipPath>
</defs>
</svg>
