<svg width="20" height="20" viewBox="0 0 20 20" fill="none" xmlns="http://www.w3.org/2000/svg">
<path d="M13.0411 -5.70556e-07C13.6184 -5.95793e-07 14.1715 0.2289 14.5794 0.63672C14.9872 1.04532 15.2161 1.59844 15.2161 2.175C15.2161 2.85704 14.8934 3.49766 14.3458 3.9039L14.3458 5.2164L19.9998 5.2164L19.9998 20L14.3458 20L14.3458 17.8164C14.8934 17.4102 15.2161 16.7695 15.2161 16.0875C15.22 15.3328 14.8325 14.6297 14.1919 14.2305C13.5512 13.8312 12.7497 13.7922 12.0731 14.1281C11.3973 14.4641 10.9442 15.1266 10.8754 15.8789C10.8067 16.6305 11.1332 17.3641 11.7371 17.8164L11.7371 20L5.21612 20L5.21612 14.346L3.90362 14.346C3.49738 14.8937 2.85674 15.2163 2.17472 15.2163C1.42004 15.2202 0.716905 14.8327 0.317685 14.1921C-0.0815353 13.5515 -0.120595 12.7499 0.215341 12.0733C0.551281 11.3975 1.21378 10.9444 1.96612 10.8756C2.71768 10.8069 3.45128 11.1335 3.90362 11.7374L5.21612 11.7374L5.21612 5.21636L11.7371 5.21635L11.7371 3.90386C10.9926 3.34214 10.6895 2.36792 10.9848 1.48286C11.2809 0.598476 12.1082 0.00161499 13.041 3.56691e-05L13.0411 -5.70556e-07Z" fill="#0C96ED"/>
</svg>
